# xmcd
#
# Track frame offsets:
#	150
#	18342
#	38497
#	53420
#	70497
#	87165
#	101955
#	117980
#	128195
#	144872
#	160100
#	172662
#	187052
#	203900
#	217102
#
# Disc length: 3132 seconds
#
# Revision: 1
# Processed by: cddbd v1.5.1PL2 Copyright (c) Steve Scherf et al.
# Submitted via: audiograbber 1.83.01
#
DISCID=cc0c3a0f
DTITLE=Music Maestro - MM6244
DYEAR=1900
DGENRE=
TTITLE0=Brooks, Garth - To Make You Feel My Love
TTITLE1=Hill, Faith and Tim McGraw - Just To Hear You Say That You Love Me
TTITLE2=Adkins, Trace - Big Time
TTITLE3=Walker, Clay - Ordinary People
TTITLE4=Kersh, David - Wonderful Tonight
TTITLE5=Messina, Jo Dee - I'm Alright
TTITLE6=White, Lari - Stepping Stone
TTITLE7=Wariner, Steve and Garth Brooks - Burnin' The Roadhouse Down
TTITLE8=Yoakam, Dwight - Things Change
TTITLE9=Restless Heart - No End To This Road
TTITLE10=Diffie, Joe - Texas Size Heartache
TTITLE11=Kinleys, The - Dance In The Boat
TTITLE12=Crittendon, Melodie - I Should've Known
TTITLE13=Dodd, Deryl - Time On My Hands
TTITLE14=Yearwood, Trisha - There Goes My Baby
EXTD=As Listed In KJ Pro
EXTT0=
EXTT1=
EXTT2=
EXTT3=
EXTT4=
EXTT5=
EXTT6=
EXTT7=
EXTT8=
EXTT9=
EXTT10=
EXTT11=
EXTT12=
EXTT13=
EXTT14=
PLAYORDER=
